<?xml version="1.0" standalone="no"?>
<!DOCTYPE svg PUBLIC "-//W3C//DTD SVG 20010904//EN"
 "http://www.w3.org/TR/2001/REC-SVG-20010904/DTD/svg10.dtd">
<svg version="1.0" xmlns="http://www.w3.org/2000/svg"
 width="470.000000pt" height="531.000000pt" viewBox="0 0 470.000000 531.000000"
 preserveAspectRatio="xMidYMid meet">

<g transform="translate(0.000000,531.000000) scale(0.100000,-0.100000)"
fill="#000000" stroke="none">
<path d="M2245 4763 c-433 -69 -789 -380 -909 -797 -77 -265 -51 -559 70 -801
20 -38 84 -144 143 -235 60 -91 177 -273 262 -405 240 -373 447 -694 526 -816
l71 -111 87 134 c47 73 112 174 144 223 119 186 361 560 554 859 110 170 214
341 232 380 117 255 132 555 41 824 -118 346 -408 617 -766 717 -82 23 -118
27 -260 30 -91 2 -178 1 -195 -2z m256 -628 c106 -13 253 -112 318 -213 78
-122 98 -280 53 -418 -45 -137 -175 -269 -307 -310 -69 -22 -189 -29 -258 -15
-265 56 -440 334 -372 594 42 160 170 299 320 347 47 15 140 28 175 24 14 -2
46 -6 71 -9z"/>
<path d="M2285 1309 c-92 -10 -217 -48 -281 -85 -59 -35 -121 -108 -135 -157
-53 -197 202 -367 551 -367 142 0 325 45 425 105 54 32 109 85 98 96 -4 4 -55
28 -112 53 l-104 45 -38 -34 c-53 -47 -147 -75 -258 -75 -124 0 -206 24 -263
78 -36 34 -35 64 3 96 48 41 129 60 251 61 l108 0 0 98 0 97 -82 -1 c-46 -1
-119 -5 -163 -10z"/>
</g>
</svg>
