<?xml version="1.0" encoding="utf-8"?>
<!-- Generator: Adobe Illustrator 27.0.0, SVG Export Plug-In . SVG Version: 6.00 Build 0)  -->
<svg version="1.1" id="Layer_1" xmlns="http://www.w3.org/2000/svg" xmlns:xlink="http://www.w3.org/1999/xlink" x="0px" y="0px"
	 viewBox="0 0 2000 2000" style="enable-background:new 0 0 2000 2000;" xml:space="preserve">
<style type="text/css">
	.st0{fill:none;}
</style>
<rect class="st0" width="2000" height="2000"/>
<g>
	<path d="M1232.42,933.69c35.18-47.81,55.98-106.85,55.98-170.75c0-159.28-129.12-288.4-288.4-288.4s-288.4,129.12-288.4,288.4
		c0,63.91,20.8,122.95,55.98,170.75L1000,1294.62L1232.42,933.69z M1000,637.46c69.3,0,125.48,56.18,125.48,125.48
		S1069.3,888.42,1000,888.42s-125.48-56.18-125.48-125.48S930.7,637.46,1000,637.46z"/>
	<path d="M1081.56,1447.49c-6.63,9.79-29.34,28.94-76.05,28.94c-51.19,0-75.37-21.59-75.37-32.7c0-9.92,22.68-28.64,73.87-28.64
		c10.91,0,23.76,1.43,28.73,2.04v-51.6h-28.47c-85.16,0-145.69,32.89-145.69,78.2c0,45.31,57.11,81.74,145.69,81.74
		c59.85,0,117.13-22.4,137.14-51.98L1081.56,1447.49z"/>
</g>
</svg>
