<svg width="48" height="48" viewBox="0 0 48 48" fill="none" xmlns="http://www.w3.org/2000/svg">
<circle cx="24" cy="24" r="22.5" fill="#33BDEF" stroke="white" stroke-width="3"/>
<path d="M25.5848 15.6429L25.3839 15.8237L21.0245 20.1429H18.0714V30.4286H28.8995C29.8061 30.4286 30.5971 29.7882 30.7879 28.9018L32.1741 22.4732C32.4277 21.2854 31.4986 20.1429 30.2857 20.1429H26.5893L26.7098 19.6607C26.8404 19.5603 26.9232 19.5176 27.1116 19.2589C27.4129 18.8471 27.7143 18.2093 27.7143 17.3505C27.7143 16.4339 26.8856 15.6429 25.846 15.6429H25.5848ZM26.0468 16.9889C26.318 17.0416 26.4285 17.1521 26.4285 17.3505C26.4285 17.9305 26.2528 18.2896 26.087 18.5156C25.9213 18.7416 25.8058 18.7969 25.8058 18.7969L25.5848 18.9174L25.5044 19.1786L25.1227 20.625L24.9218 21.4286H30.2857C30.7101 21.4286 30.9963 21.7977 30.9085 22.2121L29.5424 28.6406C29.4771 28.942 29.2059 29.1429 28.8995 29.1429H21.9285V21.0469L26.0468 16.9889ZM19.3571 21.4286H20.6428V29.1429H19.3571V21.4286Z" fill="white"/>
</svg>
